# xmcd
#
# Track frame offsets:
#	150
#	18621
#	38599
#	54378
#	70160
#	85899
#	102985
#	120316
#	136733
#	157671
#	186256
#	204374
#	222796
#	243068
#	266277
#
# Disc length: 3957 seconds
# Revision: 0
# Processed by: cddbd v1.5.2PL0 Copyright (c) Steve Scherf et al.
# Submitted via: dBpowerAMP V12.0
#
DISCID=b80f730f
DTITLE=Glennis Grace - Bitterzoet Live and Studio Sessies
DYEAR=2015
DGENRE=Pop
TTITLE0=Zeg maar niks
TTITLE1=Als het ons niets zou doen (duet John Ewbank)
TTITLE2=Ondanks Alles
TTITLE3=Als je morgen
TTITLE4=Alles
TTITLE5=Ik wacht niet meer op jou
TTITLE6=Jij breekt mijn hart het mooist
TTITLE7=Als je mij weer aankijkt
TTITLE8=Annie's Song
TTITLE9=Whitney Houston Medley
TTITLE10=Shades of Grey
TTITLE11=Green green grass of home
TTITLE12=More than words
TTITLE13=1 seconde
TTITLE14=Beyonce Medley
EXTD=
EXTT0=
EXTT1=
EXTT2=
EXTT3=
EXTT4=
EXTT5=
EXTT6=
EXTT7=
EXTT8=
EXTT9=
EXTT10=
EXTT11=
EXTT12=
EXTT13=
EXTT14=
PLAYORDER=
